<svg width="54" height="24" viewBox="0 0 54 24" fill="none" xmlns="http://www.w3.org/2000/svg">
<path d="M5.564 17V15.944C6.092 15.912 6.468 15.8 6.692 15.608C6.916 15.416 7.06 15.128 7.124 14.744C7.188 14.344 7.22 13.856 7.22 13.28L7.244 10.76L2.972 4.04C2.636 3.48 2.364 2.984 2.156 2.552C1.964 2.12 1.852 1.76 1.82 1.472C1.564 1.488 1.324 1.496 1.1 1.496C0.876 1.496 0.652 1.504 0.428 1.52V0.199999H6.908V1.256C6.268 1.24 5.796 1.328 5.492 1.52C5.204 1.712 5.076 1.992 5.108 2.36C5.14 2.712 5.3 3.128 5.588 3.608L7.484 6.632C7.612 6.824 7.756 7.048 7.916 7.304C8.076 7.56 8.236 7.824 8.396 8.096C8.572 8.352 8.732 8.616 8.876 8.888H8.924C9.068 8.584 9.228 8.264 9.404 7.928C9.596 7.576 9.788 7.192 9.98 6.776L11.756 3.392C11.836 3.232 11.94 3.032 12.068 2.792C12.196 2.552 12.332 2.312 12.476 2.072C12.636 1.816 12.796 1.608 12.956 1.448C12.668 1.464 12.348 1.48 11.996 1.496C11.66 1.496 11.356 1.504 11.084 1.52V0.199999H16.1V1.256C15.396 1.32 14.804 1.584 14.324 2.048C13.86 2.496 13.364 3.208 12.836 4.184C12.308 5.192 11.788 6.184 11.276 7.16C10.764 8.12 10.268 9.064 9.788 9.992C9.788 10.248 9.78 10.576 9.764 10.976C9.764 11.376 9.764 11.776 9.764 12.176C9.764 12.576 9.764 12.928 9.764 13.232C9.764 13.52 9.764 13.704 9.764 13.784C9.764 14.216 9.756 14.608 9.74 14.96C9.74 15.296 9.724 15.568 9.692 15.776C10.012 15.744 10.348 15.728 10.7 15.728C11.068 15.712 11.388 15.696 11.66 15.68V17H5.564ZM21.1475 17.384C20.0115 17.384 18.9875 17.128 18.0755 16.616C17.1635 16.104 16.4355 15.392 15.8915 14.48C15.3635 13.552 15.0995 12.488 15.0995 11.288C15.0995 9.992 15.3635 8.848 15.8915 7.856C16.4355 6.848 17.1635 6.056 18.0755 5.48C18.9875 4.904 20.0035 4.616 21.1235 4.616C22.2595 4.616 23.2835 4.88 24.1955 5.408C25.1075 5.92 25.8275 6.64 26.3555 7.568C26.8995 8.48 27.1715 9.536 27.1715 10.736C27.1715 12 26.9075 13.136 26.3795 14.144C25.8515 15.152 25.1315 15.944 24.2195 16.52C23.3235 17.096 22.2995 17.384 21.1475 17.384ZM21.3155 16.184C22.0835 16.168 22.6835 15.928 23.1155 15.464C23.5635 15 23.8835 14.408 24.0755 13.688C24.2675 12.952 24.3635 12.192 24.3635 11.408C24.3635 10.72 24.2995 10.048 24.1715 9.392C24.0595 8.72 23.8755 8.112 23.6195 7.568C23.3635 7.024 23.0275 6.592 22.6115 6.272C22.1955 5.936 21.6915 5.776 21.0995 5.792C20.3475 5.792 19.7315 6.024 19.2515 6.488C18.7875 6.952 18.4435 7.552 18.2195 8.288C18.0115 9.008 17.9075 9.776 17.9075 10.592C17.9075 11.536 18.0275 12.432 18.2675 13.28C18.5075 14.128 18.8755 14.824 19.3715 15.368C19.8835 15.912 20.5315 16.184 21.3155 16.184ZM34.6859 23.504C33.2779 23.504 32.1419 23.344 31.2779 23.024C30.4299 22.72 29.8139 22.32 29.4299 21.824C29.0619 21.344 28.8779 20.832 28.8779 20.288C28.8779 19.856 28.9739 19.456 29.1659 19.088C29.3739 18.72 29.6459 18.392 29.9819 18.104C30.3179 17.832 30.6939 17.616 31.1099 17.456C30.5499 17.28 30.1259 17.032 29.8379 16.712C29.5499 16.376 29.4059 15.968 29.4059 15.488C29.4059 14.976 29.6059 14.472 30.0059 13.976C30.4219 13.48 31.0139 13.144 31.7819 12.968C31.0619 12.648 30.4859 12.184 30.0539 11.576C29.6219 10.968 29.3979 10.248 29.3819 9.416C29.3659 8.456 29.6059 7.616 30.1019 6.896C30.6139 6.176 31.2619 5.616 32.0459 5.216C32.8459 4.816 33.6779 4.616 34.5419 4.616C35.0379 4.616 35.5499 4.688 36.0779 4.832C36.6059 4.96 37.0859 5.168 37.5179 5.456C37.6939 4.992 37.9259 4.568 38.2139 4.184C38.5019 3.8 38.8379 3.496 39.2219 3.272C39.6219 3.048 40.0379 2.936 40.4699 2.936C40.9339 2.936 41.2859 3.056 41.5259 3.296C41.7659 3.536 41.8859 3.856 41.8859 4.256C41.8859 4.384 41.8459 4.544 41.7659 4.736C41.7019 4.912 41.5819 5.064 41.4059 5.192C41.2299 5.32 40.9899 5.384 40.6859 5.384C40.4299 5.384 40.1979 5.304 39.9899 5.144C39.7979 4.968 39.6779 4.76 39.6299 4.52C39.2939 4.584 39.0139 4.784 38.7899 5.12C38.5819 5.44 38.4459 5.768 38.3819 6.104C38.7979 6.472 39.1179 6.912 39.3419 7.424C39.5819 7.92 39.7019 8.456 39.7019 9.032C39.7019 9.944 39.4539 10.752 38.9579 11.456C38.4779 12.16 37.8459 12.712 37.0619 13.112C36.2779 13.512 35.4299 13.712 34.5179 13.712C34.2459 13.712 33.9899 13.696 33.7499 13.664C33.5099 13.616 33.2459 13.592 32.9579 13.592C32.4459 13.592 32.0219 13.712 31.6859 13.952C31.3659 14.192 31.2459 14.48 31.3259 14.816C31.4059 15.168 31.7419 15.4 32.3339 15.512C32.9259 15.624 33.7819 15.704 34.9019 15.752C36.1339 15.8 37.1899 15.952 38.0699 16.208C38.9659 16.448 39.6539 16.824 40.1339 17.336C40.6299 17.848 40.8779 18.544 40.8779 19.424C40.8779 20.08 40.6939 20.664 40.3259 21.176C39.9739 21.688 39.4939 22.112 38.8859 22.448C38.2939 22.8 37.6299 23.064 36.8939 23.24C36.1579 23.416 35.4219 23.504 34.6859 23.504ZM34.9019 22.328C36.1979 22.328 37.1979 22.088 37.9019 21.608C38.6219 21.128 38.9819 20.584 38.9819 19.976C38.9819 19.464 38.8059 19.064 38.4539 18.776C38.1019 18.504 37.6059 18.304 36.9659 18.176C36.3419 18.064 35.6059 18 34.7579 17.984C34.3419 17.952 33.9179 17.928 33.4859 17.912C33.0539 17.896 32.6539 17.856 32.2859 17.792C31.9179 18.048 31.6299 18.36 31.4219 18.728C31.2299 19.096 31.1259 19.48 31.1099 19.88C31.1099 20.616 31.4539 21.208 32.1419 21.656C32.8299 22.104 33.7499 22.328 34.9019 22.328ZM34.5899 12.584C35.1339 12.584 35.5819 12.448 35.9339 12.176C36.3019 11.888 36.5739 11.512 36.7499 11.048C36.9419 10.568 37.0379 10.048 37.0379 9.488C37.0379 8.832 36.9419 8.216 36.7499 7.64C36.5579 7.064 36.2779 6.6 35.9099 6.248C35.5419 5.896 35.0699 5.72 34.4939 5.72C33.7099 5.72 33.1019 6.032 32.6699 6.656C32.2379 7.28 32.0219 8.032 32.0219 8.912C32.0219 9.616 32.1179 10.248 32.3099 10.808C32.5179 11.352 32.8139 11.784 33.1979 12.104C33.5819 12.424 34.0459 12.584 34.5899 12.584ZM49.4401 17C49.4081 16.744 49.3841 16.52 49.3681 16.328C49.3521 16.136 49.3281 15.936 49.2961 15.728C48.7521 16.272 48.1681 16.688 47.5441 16.976C46.9201 17.248 46.2721 17.384 45.6001 17.384C44.4481 17.384 43.5761 17.104 42.9841 16.544C42.4081 15.968 42.1201 15.256 42.1201 14.408C42.1201 13.672 42.3361 13.032 42.7681 12.488C43.2001 11.944 43.7681 11.504 44.4721 11.168C45.1761 10.816 45.9441 10.56 46.7761 10.4C47.6081 10.224 48.4241 10.136 49.2241 10.136V8.72C49.2241 8.208 49.1761 7.736 49.0801 7.304C48.9841 6.856 48.7841 6.496 48.4801 6.224C48.1921 5.936 47.7361 5.792 47.1121 5.792C46.6961 5.776 46.2801 5.856 45.8641 6.032C45.4481 6.192 45.1281 6.464 44.9041 6.848C45.0321 6.976 45.1121 7.128 45.1441 7.304C45.1921 7.464 45.2161 7.616 45.2161 7.76C45.2161 7.984 45.1201 8.24 44.9281 8.528C44.7361 8.8 44.4081 8.928 43.9441 8.912C43.5601 8.912 43.2641 8.784 43.0561 8.528C42.8641 8.256 42.7681 7.944 42.7681 7.592C42.7681 7.016 42.9761 6.504 43.3921 6.056C43.8241 5.608 44.4081 5.256 45.1441 5C45.8801 4.744 46.7041 4.616 47.6161 4.616C48.9921 4.616 50.0161 4.976 50.6881 5.696C51.3761 6.416 51.7201 7.552 51.7201 9.104C51.7201 9.68 51.7201 10.232 51.7201 10.76C51.7201 11.288 51.7121 11.816 51.6961 12.344C51.6961 12.872 51.6961 13.432 51.6961 14.024C51.6961 14.264 51.6881 14.536 51.6721 14.84C51.6561 15.144 51.6321 15.464 51.6001 15.8C51.8721 15.784 52.1521 15.768 52.4401 15.752C52.7281 15.736 53.0001 15.728 53.2561 15.728V17H49.4401ZM49.2241 11.24C48.7121 11.272 48.1841 11.344 47.6401 11.456C47.1121 11.568 46.6321 11.736 46.2001 11.96C45.7681 12.184 45.4161 12.472 45.1441 12.824C44.8881 13.176 44.7601 13.6 44.7601 14.096C44.7921 14.64 44.9681 15.04 45.2881 15.296C45.6241 15.552 46.0161 15.68 46.4641 15.68C47.0241 15.68 47.5201 15.576 47.9521 15.368C48.3841 15.144 48.8081 14.84 49.2241 14.456C49.2081 14.28 49.2001 14.104 49.2001 13.928C49.2001 13.736 49.2001 13.536 49.2001 13.328C49.2001 13.184 49.2001 12.92 49.2001 12.536C49.2161 12.136 49.2241 11.704 49.2241 11.24Z" fill="url(#paint0_linear_304_126)"/>
<defs>
<linearGradient id="paint0_linear_304_126" x1="0.500003" y1="8.5" x2="40.2863" y2="-12.4413" gradientUnits="userSpaceOnUse">
<stop stop-color="#FF52AF"/>
<stop offset="1" stop-color="#9F53FF"/>
</linearGradient>
</defs>
</svg>
